<svg xmlns="http://www.w3.org/2000/svg" viewBox="0 0 576 512" fill="currentColor"><path d="M572.52 241.4C518.73 135.75 410.56 64 288 64 201.48 64 124.53 107.32 68.94 176.82 48.21 203.21 35.22 232.51 23.48 259.39c-11.24 25.63-21.84 49.83-21.84 49.83s9.72 24.51 21.38 49.24c48.72 99.79 158.65 163.55 267.65 163.55 86.53 0 163.48-43.32 219.06-112.82 19.74-26.39 32.73-55.69 44.47-82.57 11.24-25.63 21.84-49.83 21.84-49.83s-9.72-24.51-21.38-49.24zM288 384c-52.94 0-96-43.06-96-96s43.06-96 96-96 96 43.06 96 96-43.06 96-96 96zm0-256C152.29 128 48 256 48 256s104.29 128 240 128 240-128 240-128S423.71 128 288 128z"/><path d="M288 224c-17.67 0-32 14.33-32 32s14.33 32 32 32 32-14.33 32-32-14.33-32-32-32z"/></svg>
