<svg xmlns="http://www.w3.org/2000/svg" viewBox="0 0 640 512" fill="currentColor"><path d="M634.83 471.05L465.49 323.6C476.98 290.84 480 254.61 480 224c0-79.5-64.5-144-144-144-45.61 0-87.25 21.47-113.47 54.92L99.42 34.55C93.09 28.61 82.97 29.06 77.04 35.4S29.06 82.97 35.4 77.04l497.17 436.92c6.33 5.93 16.45 5.48 22.38-.85S640 482.49 634.83 471.05zM256 272c0 17.67 14.33 32 32 32s32-14.33 32-32-14.33-32-32-32-32 14.33-32 32zm-43.47 48C233.39 346.52 260.11 384 288 384c34.84 0 64-28.53 64-64 0-16.75-6.53-32.31-17.43-43.18L195.78 143.59C188.2 158.53 184 176 184 192c0 48.6 29.5 91.51 73.24 111.79L212.53 320zM607.82 199.23C588.23 151.06 531.23 112 464 112c-36.22 0-70.56 12.14-99.24 32.2L403.39 271.06C440.17 272.09 471.69 272 464 272c70.69 0 128 50.37 142.15 120H208.44L148.28 150.6C120.46 137.55 87.05 128 64 128 29.57 128 0 157.57 0 192c0 32.42 23.42 61.26 56.09 78.06-1.45-5.62-2.1-11.51-2.1-17.47 0-53.29 43.21-96 96-96 42.63 0 78.68 28.02 91.56 67.52L89.23 92.91C84.39 87.17 76.88 87.19 72.06 92.96c-4.82 5.77-4.82 14.39.01 20.16L237.89 320H48.27C62.55 373.26 112.45 400 144 400c36.22 0 70.56-12.14 99.24-32.2l156.8 137.39c.52 23.31 17.59 40 42.69 40 5.41 0 9.18-1.57 11.98-3.84C628.27 526.27 640 516.03 640 496c0-15.21-7.4-29.01-19.15-37.95-11.75-8.94-28.53-12.8-40.93-12.8-12.38 0-29.16 3.86-40.91 12.8L249.78 193.18C232.22 181.81 210.25 172 192 172c-17.67 0-32 14.33-32 32 0 7.75 2.6 15.07 7.03 20.83L37.18 160.2c-9.34-10.13-24.56-10.13-33.9 0-9.34 10.13-9.34 26.54 0 36.67l565.72 497.73c9.34 10.14 24.56 10.14 33.9 0 9.34-10.13 9.34-26.54 0-36.67L607.82 199.23z"/></svg>
